<svg xmlns="http://www.w3.org/2000/svg" viewBox="0 0 320 320" role="img" aria-label="FIFA Copa Mundial 2026">
  <defs>
    <linearGradient id="bg" x1="0%" y1="0%" x2="100%" y2="100%">
      <stop offset="0%" stop-color="#0A1F4A"/>
      <stop offset="55%" stop-color="#0F3B9A"/>
      <stop offset="100%" stop-color="#1E5FD0"/>
    </linearGradient>
    <linearGradient id="gold" x1="0%" y1="0%" x2="100%" y2="100%">
      <stop offset="0%" stop-color="#FFD54F"/>
      <stop offset="100%" stop-color="#FFB300"/>
    </linearGradient>
  </defs>
  <circle cx="160" cy="160" r="142" fill="url(#bg)"/>
  <circle cx="160" cy="160" r="116" fill="none" stroke="#FFFFFF" stroke-opacity="0.2" stroke-width="8"/>
  <path d="M160 44c34 0 64 12 88 35l-24 28c-16-16-36-24-64-24-26 0-48 8-64 24l-24-28c24-23 54-35 88-35Z" fill="#F1F5FF" opacity="0.95"/>
  <path d="M160 92c29 0 54 10 74 28l-18 20c-15-13-33-20-56-20-23 0-41 7-56 20l-18-20c20-18 45-28 74-28Z" fill="#FF4D5E" opacity="0.95"/>
  <circle cx="160" cy="180" r="44" fill="url(#gold)"/>
  <path d="M160 144c11 0 20 9 20 20 0 6-2 11-6 15l-1-11-8 6-8-6-1 11c-4-4-6-9-6-15 0-11 9-20 20-20Z" fill="#0A1F4A"/>
  <text x="160" y="258" text-anchor="middle" font-family="Arial, Helvetica, sans-serif" font-size="34" font-weight="700" letter-spacing="4" fill="#FFFFFF">FIFA</text>
  <text x="160" y="292" text-anchor="middle" font-family="Arial, Helvetica, sans-serif" font-size="30" font-weight="700" letter-spacing="3" fill="#FFD54F">2026</text>
</svg>